# MagicaVoxel @ Ephtracy

# group
o 

# material
mtllib frog.mtl
usemtl palette

# normals
vn -1 0 0
vn 1 0 0
vn 0 0 1
vn 0 0 -1
vn 0 -1 0
vn 0 1 0

# texcoords
vt 0.00195313 0.5
vt 0.0332031 0.5
vt 0.0371094 0.5
vt 0.0410156 0.5
vt 0.0644531 0.5
vt 0.0957031 0.5

# verts
v 0 2 -0.5
v 0 2 -0.6
v 0 2.1 -0.5
v 0 2.1 -0.6
v 0.1 2 -0.3
v 0.1 2 -0.4
v 0.1 2 -0.5
v 0.1 2 -0.6
v 0.1 2 -0.7
v 0.1 2 -0.8
v 0.1 2 -0.9
v 0.1 2.1 -0.2
v 0.1 2.1 -0.3
v 0.1 2.1 -0.4
v 0.1 2.1 -0.5
v 0.1 2.1 -0.6
v 0.1 2.1 -0.7
v 0.1 2.1 -0.8
v 0.1 2.1 -0.9
v 0.1 2.2 -0.2
v 0.1 2.2 -0.3
v 0.1 2.2 -0.4
v 0.1 2.2 -0.5
v 0.1 2.3 -0.3
v 0.1 2.3 -0.5
v 0.2 2 -0.7
v 0.2 2 -0.8
v 0.2 2 -0.9
v 0.2 2 -1
v 0.2 2.1 -0.6
v 0.2 2.1 -0.7
v 0.2 2.1 -0.8
v 0.2 2.1 -0.9
v 0.2 2.1 -1
v 0.2 2.2 -0.5
v 0.2 2.2 -0.6
v 0.2 2.2 -0.7
v 0.2 2.2 -0.8
v 0.2 2.3 -0.5
v 0.2 2.3 -0.7
v 0.3 2.1 -0.2
v 0.3 2.1 -0.5
v 0.3 2.1 -0.6
v 0.3 2.2 -0.2
v 0.3 2.2 -0.3
v 0.3 2.2 -0.4
v 0.3 2.2 -0.6
v 0.3 2.3 -0.3
v 0.3 2.3 -0.4
v 0.3 2.3 -0.7
v 0.3 2.4 -0.4
v 0.3 2.4 -0.7
v 0.3 2.4 -0.8
v 0.3 2.4 -0.9
v 0.3 2.5 -0.7
v 0.3 2.5 -0.8
v 0.3 2.5 -0.9
v 0.4 2.1 -0.1
v 0.4 2.1 -0.2
v 0.4 2.1 -0.6
v 0.4 2.1 -0.7
v 0.4 2.2 -0.1
v 0.4 2.2 -0.2
v 0.4 2.2 -0.3
v 0.4 2.2 -0.6
v 0.4 2.2 -0.7
v 0.4 2.2 -0.8
v 0.4 2.3 -0.2
v 0.4 2.3 -0.3
v 0.4 2.3 -0.4
v 0.4 2.3 -0.7
v 0.4 2.3 -0.8
v 0.4 2.3 -0.9
v 0.4 2.4 -0.3
v 0.4 2.4 -0.4
v 0.4 2.4 -0.6
v 0.4 2.4 -0.7
v 0.4 2.4 -0.8
v 0.4 2.4 -0.9
v 0.4 2.5 -0.6
v 0.4 2.5 -0.7
v 0.6 2 -0.8
v 0.6 2 -0.9
v 0.6 2.1 -0.8
v 0.6 2.1 -0.9
v 0.7 2 -0.5
v 0.7 2 -0.6
v 0.7 2 -0.7
v 0.7 2 -0.8
v 0.7 2 -0.9
v 0.7 2 -1
v 0.7 2.1 -0.5
v 0.7 2.1 -0.6
v 0.7 2.1 -0.7
v 0.7 2.1 -0.8
v 0.7 2.1 -0.9
v 0.7 2.1 -1
v 0.7 2.2 -0.6
v 0.7 2.2 -0.7
v 0.7 2.2 -0.8
v 0.8 2 -0.3
v 0.8 2 -0.4
v 0.8 2 -0.5
v 0.8 2 -0.6
v 0.8 2 -0.7
v 0.8 2.1 -0.2
v 0.8 2.1 -0.3
v 0.8 2.1 -0.4
v 0.8 2.1 -0.5
v 0.8 2.1 -0.6
v 0.8 2.1 -0.7
v 0.8 2.2 -0.2
v 0.8 2.2 -0.3
v 0.8 2.2 -0.4
v 0.8 2.3 -0.3
v 0.8 2.3 -0.4
v 0.2 2 -0.3
v 0.2 2 -0.4
v 0.2 2 -0.5
v 0.2 2 -0.6
v 0.2 2 -0.7
v 0.2 2.1 -0.2
v 0.2 2.1 -0.3
v 0.2 2.1 -0.4
v 0.2 2.1 -0.5
v 0.2 2.1 -0.6
v 0.2 2.1 -0.7
v 0.2 2.2 -0.2
v 0.2 2.2 -0.3
v 0.2 2.2 -0.4
v 0.2 2.3 -0.3
v 0.2 2.3 -0.4
v 0.3 2 -0.5
v 0.3 2 -0.6
v 0.3 2 -0.7
v 0.3 2 -0.8
v 0.3 2 -0.9
v 0.3 2 -1
v 0.3 2.1 -0.5
v 0.3 2.1 -0.6
v 0.3 2.1 -0.7
v 0.3 2.1 -0.8
v 0.3 2.1 -0.9
v 0.3 2.1 -1
v 0.3 2.2 -0.6
v 0.3 2.2 -0.7
v 0.3 2.2 -0.8
v 0.4 2 -0.8
v 0.4 2 -0.9
v 0.4 2.1 -0.8
v 0.4 2.1 -0.9
v 0.6 2.1 -0.1
v 0.6 2.1 -0.2
v 0.6 2.1 -0.6
v 0.6 2.1 -0.7
v 0.6 2.2 -0.1
v 0.6 2.2 -0.2
v 0.6 2.2 -0.3
v 0.6 2.2 -0.6
v 0.6 2.2 -0.7
v 0.6 2.2 -0.8
v 0.6 2.3 -0.2
v 0.6 2.3 -0.3
v 0.6 2.3 -0.4
v 0.6 2.3 -0.7
v 0.6 2.3 -0.8
v 0.6 2.3 -0.9
v 0.6 2.4 -0.3
v 0.6 2.4 -0.4
v 0.6 2.4 -0.6
v 0.6 2.4 -0.7
v 0.6 2.4 -0.8
v 0.6 2.4 -0.9
v 0.6 2.5 -0.6
v 0.6 2.5 -0.7
v 0.7 2.1 -0.2
v 0.7 2.1 -0.5
v 0.7 2.1 -0.6
v 0.7 2.2 -0.2
v 0.7 2.2 -0.3
v 0.7 2.2 -0.4
v 0.7 2.2 -0.6
v 0.7 2.3 -0.3
v 0.7 2.3 -0.4
v 0.7 2.3 -0.7
v 0.7 2.4 -0.4
v 0.7 2.4 -0.7
v 0.7 2.4 -0.8
v 0.7 2.4 -0.9
v 0.7 2.5 -0.7
v 0.7 2.5 -0.8
v 0.7 2.5 -0.9
v 0.8 2 -0.7
v 0.8 2 -0.8
v 0.8 2 -0.9
v 0.8 2 -1
v 0.8 2.1 -0.6
v 0.8 2.1 -0.7
v 0.8 2.1 -0.8
v 0.8 2.1 -0.9
v 0.8 2.1 -1
v 0.8 2.2 -0.5
v 0.8 2.2 -0.6
v 0.8 2.2 -0.7
v 0.8 2.2 -0.8
v 0.8 2.3 -0.5
v 0.8 2.3 -0.7
v 0.9 2 -0.3
v 0.9 2 -0.4
v 0.9 2 -0.5
v 0.9 2 -0.6
v 0.9 2 -0.7
v 0.9 2 -0.8
v 0.9 2 -0.9
v 0.9 2.1 -0.2
v 0.9 2.1 -0.3
v 0.9 2.1 -0.4
v 0.9 2.1 -0.5
v 0.9 2.1 -0.6
v 0.9 2.1 -0.7
v 0.9 2.1 -0.8
v 0.9 2.1 -0.9
v 0.9 2.2 -0.2
v 0.9 2.2 -0.3
v 0.9 2.2 -0.4
v 0.9 2.2 -0.5
v 0.9 2.3 -0.3
v 0.9 2.3 -0.5
v 1 2 -0.5
v 1 2 -0.6
v 1 2.1 -0.5
v 1 2.1 -0.6
v 0.4 2.1 -0.1
v 0.4 2.2 -0.1
v 0.6 2.1 -0.1
v 0.6 2.2 -0.1
v 0.1 2.1 -0.2
v 0.1 2.2 -0.2
v 0.2 2.1 -0.2
v 0.2 2.2 -0.2
v 0.3 2.1 -0.2
v 0.3 2.2 -0.2
v 0.4 2.1 -0.2
v 0.4 2.2 -0.2
v 0.4 2.3 -0.2
v 0.6 2.1 -0.2
v 0.6 2.2 -0.2
v 0.6 2.3 -0.2
v 0.7 2.1 -0.2
v 0.7 2.2 -0.2
v 0.8 2.1 -0.2
v 0.8 2.2 -0.2
v 0.9 2.1 -0.2
v 0.9 2.2 -0.2
v 0.1 2 -0.3
v 0.1 2.1 -0.3
v 0.1 2.2 -0.3
v 0.1 2.3 -0.3
v 0.2 2 -0.3
v 0.2 2.1 -0.3
v 0.2 2.2 -0.3
v 0.2 2.3 -0.3
v 0.3 2.2 -0.3
v 0.3 2.3 -0.3
v 0.4 2.2 -0.3
v 0.4 2.3 -0.3
v 0.4 2.4 -0.3
v 0.6 2.2 -0.3
v 0.6 2.3 -0.3
v 0.6 2.4 -0.3
v 0.7 2.2 -0.3
v 0.7 2.3 -0.3
v 0.8 2 -0.3
v 0.8 2.1 -0.3
v 0.8 2.2 -0.3
v 0.8 2.3 -0.3
v 0.9 2 -0.3
v 0.9 2.1 -0.3
v 0.9 2.2 -0.3
v 0.9 2.3 -0.3
v 0.2 2.2 -0.4
v 0.2 2.3 -0.4
v 0.3 2.2 -0.4
v 0.3 2.3 -0.4
v 0.3 2.4 -0.4
v 0.4 2.3 -0.4
v 0.4 2.4 -0.4
v 0.6 2.3 -0.4
v 0.6 2.4 -0.4
v 0.7 2.2 -0.4
v 0.7 2.3 -0.4
v 0.7 2.4 -0.4
v 0.8 2.2 -0.4
v 0.8 2.3 -0.4
v 0 2 -0.5
v 0 2.1 -0.5
v 0.1 2 -0.5
v 0.1 2.1 -0.5
v 0.2 2 -0.5
v 0.2 2.1 -0.5
v 0.3 2 -0.5
v 0.3 2.1 -0.5
v 0.7 2 -0.5
v 0.7 2.1 -0.5
v 0.8 2 -0.5
v 0.8 2.1 -0.5
v 0.9 2 -0.5
v 0.9 2.1 -0.5
v 1 2 -0.5
v 1 2.1 -0.5
v 0.2 2.1 -0.6
v 0.2 2.2 -0.6
v 0.3 2.1 -0.6
v 0.3 2.2 -0.6
v 0.4 2.4 -0.6
v 0.4 2.5 -0.6
v 0.6 2.4 -0.6
v 0.6 2.5 -0.6
v 0.7 2.1 -0.6
v 0.7 2.2 -0.6
v 0.8 2.1 -0.6
v 0.8 2.2 -0.6
v 0.2 2 -0.7
v 0.2 2.1 -0.7
v 0.3 2 -0.7
v 0.3 2.1 -0.7
v 0.3 2.4 -0.7
v 0.3 2.5 -0.7
v 0.4 2.4 -0.7
v 0.4 2.5 -0.7
v 0.6 2.4 -0.7
v 0.6 2.5 -0.7
v 0.7 2 -0.7
v 0.7 2.1 -0.7
v 0.7 2.4 -0.7
v 0.7 2.5 -0.7
v 0.8 2 -0.7
v 0.8 2.1 -0.7
v 0.1 2 -0.8
v 0.1 2.1 -0.8
v 0.2 2 -0.8
v 0.2 2.1 -0.8
v 0.3 2 -0.8
v 0.3 2.1 -0.8
v 0.4 2 -0.8
v 0.4 2.1 -0.8
v 0.6 2 -0.8
v 0.6 2.1 -0.8
v 0.7 2 -0.8
v 0.7 2.1 -0.8
v 0.8 2 -0.8
v 0.8 2.1 -0.8
v 0.9 2 -0.8
v 0.9 2.1 -0.8
v 0.1 2.1 -0.4
v 0.1 2.2 -0.4
v 0.2 2.1 -0.4
v 0.2 2.2 -0.4
v 0.8 2.1 -0.4
v 0.8 2.2 -0.4
v 0.9 2.1 -0.4
v 0.9 2.2 -0.4
v 0.1 2.2 -0.5
v 0.1 2.3 -0.5
v 0.2 2.2 -0.5
v 0.2 2.3 -0.5
v 0.8 2.2 -0.5
v 0.8 2.3 -0.5
v 0.9 2.2 -0.5
v 0.9 2.3 -0.5
v 0 2 -0.6
v 0 2.1 -0.6
v 0.1 2 -0.6
v 0.1 2.1 -0.6
v 0.2 2 -0.6
v 0.2 2.1 -0.6
v 0.3 2 -0.6
v 0.3 2.1 -0.6
v 0.3 2.2 -0.6
v 0.4 2.1 -0.6
v 0.4 2.2 -0.6
v 0.6 2.1 -0.6
v 0.6 2.2 -0.6
v 0.7 2 -0.6
v 0.7 2.1 -0.6
v 0.7 2.2 -0.6
v 0.8 2 -0.6
v 0.8 2.1 -0.6
v 0.9 2 -0.6
v 0.9 2.1 -0.6
v 1 2 -0.6
v 1 2.1 -0.6
v 0.1 2 -0.7
v 0.1 2.1 -0.7
v 0.2 2 -0.7
v 0.2 2.1 -0.7
v 0.2 2.2 -0.7
v 0.2 2.3 -0.7
v 0.3 2.2 -0.7
v 0.3 2.3 -0.7
v 0.3 2.4 -0.7
v 0.4 2.1 -0.7
v 0.4 2.2 -0.7
v 0.4 2.3 -0.7
v 0.4 2.4 -0.7
v 0.6 2.1 -0.7
v 0.6 2.2 -0.7
v 0.6 2.3 -0.7
v 0.6 2.4 -0.7
v 0.7 2.2 -0.7
v 0.7 2.3 -0.7
v 0.7 2.4 -0.7
v 0.8 2 -0.7
v 0.8 2.1 -0.7
v 0.8 2.2 -0.7
v 0.8 2.3 -0.7
v 0.9 2 -0.7
v 0.9 2.1 -0.7
v 0.2 2.1 -0.8
v 0.2 2.2 -0.8
v 0.3 2.1 -0.8
v 0.3 2.2 -0.8
v 0.4 2.2 -0.8
v 0.4 2.3 -0.8
v 0.6 2.2 -0.8
v 0.6 2.3 -0.8
v 0.7 2.1 -0.8
v 0.7 2.2 -0.8
v 0.8 2.1 -0.8
v 0.8 2.2 -0.8
v 0.1 2 -0.9
v 0.1 2.1 -0.9
v 0.2 2 -0.9
v 0.2 2.1 -0.9
v 0.3 2 -0.9
v 0.3 2.1 -0.9
v 0.3 2.4 -0.9
v 0.3 2.5 -0.9
v 0.4 2 -0.9
v 0.4 2.1 -0.9
v 0.4 2.3 -0.9
v 0.4 2.4 -0.9
v 0.4 2.5 -0.9
v 0.6 2 -0.9
v 0.6 2.1 -0.9
v 0.6 2.3 -0.9
v 0.6 2.4 -0.9
v 0.6 2.5 -0.9
v 0.7 2 -0.9
v 0.7 2.1 -0.9
v 0.7 2.4 -0.9
v 0.7 2.5 -0.9
v 0.8 2 -0.9
v 0.8 2.1 -0.9
v 0.9 2 -0.9
v 0.9 2.1 -0.9
v 0.2 2 -1
v 0.2 2.1 -1
v 0.3 2 -1
v 0.3 2.1 -1
v 0.7 2 -1
v 0.7 2.1 -1
v 0.8 2 -1
v 0.8 2.1 -1
v 0.1 2 -0.3
v 0.2 2 -0.3
v 0.8 2 -0.3
v 0.9 2 -0.3
v 0.1 2 -0.4
v 0.2 2 -0.4
v 0.8 2 -0.4
v 0.9 2 -0.4
v 0 2 -0.5
v 0.1 2 -0.5
v 0.2 2 -0.5
v 0.3 2 -0.5
v 0.7 2 -0.5
v 0.8 2 -0.5
v 0.9 2 -0.5
v 1 2 -0.5
v 0 2 -0.6
v 0.1 2 -0.6
v 0.2 2 -0.6
v 0.3 2 -0.6
v 0.7 2 -0.6
v 0.8 2 -0.6
v 0.9 2 -0.6
v 1 2 -0.6
v 0.1 2 -0.7
v 0.2 2 -0.7
v 0.3 2 -0.7
v 0.7 2 -0.7
v 0.8 2 -0.7
v 0.9 2 -0.7
v 0.1 2 -0.8
v 0.2 2 -0.8
v 0.3 2 -0.8
v 0.4 2 -0.8
v 0.6 2 -0.8
v 0.7 2 -0.8
v 0.8 2 -0.8
v 0.9 2 -0.8
v 0.1 2 -0.9
v 0.2 2 -0.9
v 0.3 2 -0.9
v 0.4 2 -0.9
v 0.6 2 -0.9
v 0.7 2 -0.9
v 0.8 2 -0.9
v 0.9 2 -0.9
v 0.2 2 -1
v 0.3 2 -1
v 0.7 2 -1
v 0.8 2 -1
v 0.4 2.1 -0.1
v 0.6 2.1 -0.1
v 0.1 2.1 -0.2
v 0.2 2.1 -0.2
v 0.3 2.1 -0.2
v 0.4 2.1 -0.2
v 0.6 2.1 -0.2
v 0.7 2.1 -0.2
v 0.8 2.1 -0.2
v 0.9 2.1 -0.2
v 0.1 2.1 -0.3
v 0.2 2.1 -0.3
v 0.4 2.1 -0.3
v 0.6 2.1 -0.3
v 0.8 2.1 -0.3
v 0.9 2.1 -0.3
v 0.3 2.1 -0.5
v 0.7 2.1 -0.5
v 0.2 2.1 -0.6
v 0.3 2.1 -0.6
v 0.4 2.1 -0.6
v 0.6 2.1 -0.6
v 0.7 2.1 -0.6
v 0.8 2.1 -0.6
v 0.2 2.1 -0.7
v 0.3 2.1 -0.7
v 0.4 2.1 -0.7
v 0.6 2.1 -0.7
v 0.7 2.1 -0.7
v 0.8 2.1 -0.7
v 0.1 2.2 -0.4
v 0.2 2.2 -0.4
v 0.3 2.2 -0.4
v 0.7 2.2 -0.4
v 0.8 2.2 -0.4
v 0.9 2.2 -0.4
v 0.1 2.2 -0.5
v 0.2 2.2 -0.5
v 0.8 2.2 -0.5
v 0.9 2.2 -0.5
v 0.2 2.2 -0.6
v 0.3 2.2 -0.6
v 0.4 2.2 -0.6
v 0.6 2.2 -0.6
v 0.7 2.2 -0.6
v 0.8 2.2 -0.6
v 0.3 2.2 -0.7
v 0.4 2.2 -0.7
v 0.6 2.2 -0.7
v 0.7 2.2 -0.7
v 0.4 2.2 -0.8
v 0.6 2.2 -0.8
v 0.4 2.3 -0.8
v 0.6 2.3 -0.8
v 0.4 2.3 -0.9
v 0.6 2.3 -0.9
v 0.3 2.4 -0.7
v 0.4 2.4 -0.7
v 0.6 2.4 -0.7
v 0.7 2.4 -0.7
v 0.3 2.4 -0.8
v 0.4 2.4 -0.8
v 0.6 2.4 -0.8
v 0.7 2.4 -0.8
v 0.3 2.4 -0.9
v 0.4 2.4 -0.9
v 0.6 2.4 -0.9
v 0.7 2.4 -0.9
v 0.1 2.1 -0.4
v 0.2 2.1 -0.4
v 0.8 2.1 -0.4
v 0.9 2.1 -0.4
v 0 2.1 -0.5
v 0.1 2.1 -0.5
v 0.2 2.1 -0.5
v 0.3 2.1 -0.5
v 0.7 2.1 -0.5
v 0.8 2.1 -0.5
v 0.9 2.1 -0.5
v 1 2.1 -0.5
v 0 2.1 -0.6
v 0.1 2.1 -0.6
v 0.2 2.1 -0.6
v 0.3 2.1 -0.6
v 0.7 2.1 -0.6
v 0.8 2.1 -0.6
v 0.9 2.1 -0.6
v 1 2.1 -0.6
v 0.1 2.1 -0.7
v 0.2 2.1 -0.7
v 0.8 2.1 -0.7
v 0.9 2.1 -0.7
v 0.1 2.1 -0.8
v 0.2 2.1 -0.8
v 0.3 2.1 -0.8
v 0.4 2.1 -0.8
v 0.6 2.1 -0.8
v 0.7 2.1 -0.8
v 0.8 2.1 -0.8
v 0.9 2.1 -0.8
v 0.1 2.1 -0.9
v 0.2 2.1 -0.9
v 0.3 2.1 -0.9
v 0.4 2.1 -0.9
v 0.6 2.1 -0.9
v 0.7 2.1 -0.9
v 0.8 2.1 -0.9
v 0.9 2.1 -0.9
v 0.2 2.1 -1
v 0.3 2.1 -1
v 0.7 2.1 -1
v 0.8 2.1 -1
v 0.4 2.2 -0.1
v 0.6 2.2 -0.1
v 0.1 2.2 -0.2
v 0.2 2.2 -0.2
v 0.3 2.2 -0.2
v 0.4 2.2 -0.2
v 0.6 2.2 -0.2
v 0.7 2.2 -0.2
v 0.8 2.2 -0.2
v 0.9 2.2 -0.2
v 0.1 2.2 -0.3
v 0.2 2.2 -0.3
v 0.3 2.2 -0.3
v 0.4 2.2 -0.3
v 0.6 2.2 -0.3
v 0.7 2.2 -0.3
v 0.8 2.2 -0.3
v 0.9 2.2 -0.3
v 0.2 2.2 -0.7
v 0.3 2.2 -0.7
v 0.7 2.2 -0.7
v 0.8 2.2 -0.7
v 0.2 2.2 -0.8
v 0.3 2.2 -0.8
v 0.7 2.2 -0.8
v 0.8 2.2 -0.8
v 0.4 2.3 -0.2
v 0.6 2.3 -0.2
v 0.1 2.3 -0.3
v 0.2 2.3 -0.3
v 0.3 2.3 -0.3
v 0.4 2.3 -0.3
v 0.6 2.3 -0.3
v 0.7 2.3 -0.3
v 0.8 2.3 -0.3
v 0.9 2.3 -0.3
v 0.2 2.3 -0.4
v 0.3 2.3 -0.4
v 0.4 2.3 -0.4
v 0.6 2.3 -0.4
v 0.7 2.3 -0.4
v 0.8 2.3 -0.4
v 0.1 2.3 -0.5
v 0.2 2.3 -0.5
v 0.8 2.3 -0.5
v 0.9 2.3 -0.5
v 0.2 2.3 -0.7
v 0.3 2.3 -0.7
v 0.7 2.3 -0.7
v 0.8 2.3 -0.7
v 0.4 2.4 -0.3
v 0.6 2.4 -0.3
v 0.3 2.4 -0.4
v 0.4 2.4 -0.4
v 0.6 2.4 -0.4
v 0.7 2.4 -0.4
v 0.4 2.4 -0.6
v 0.6 2.4 -0.6
v 0.3 2.4 -0.7
v 0.4 2.4 -0.7
v 0.6 2.4 -0.7
v 0.7 2.4 -0.7
v 0.4 2.5 -0.6
v 0.6 2.5 -0.6
v 0.3 2.5 -0.7
v 0.4 2.5 -0.7
v 0.6 2.5 -0.7
v 0.7 2.5 -0.7
v 0.3 2.5 -0.8
v 0.4 2.5 -0.8
v 0.6 2.5 -0.8
v 0.7 2.5 -0.8
v 0.3 2.5 -0.9
v 0.4 2.5 -0.9
v 0.6 2.5 -0.9
v 0.7 2.5 -0.9

# faces
f 3/2/1 2/2/1 1/2/1
f 4/2/1 2/2/1 3/2/1
f 13/1/1 6/1/1 5/1/1
f 14/4/1 7/4/1 6/4/1
f 14/1/1 6/1/1 13/1/1
f 15/4/1 7/4/1 14/4/1
f 16/2/1 9/2/1 8/2/1
f 17/2/1 9/2/1 16/2/1
f 18/2/1 11/2/1 10/2/1
f 19/2/1 11/2/1 18/2/1
f 20/1/1 13/1/1 12/1/1
f 20/1/1 14/1/1 13/1/1
f 21/1/1 14/1/1 20/1/1
f 22/1/1 14/1/1 21/1/1
f 24/1/1 23/1/1 22/1/1
f 24/1/1 22/1/1 21/1/1
f 25/1/1 23/1/1 24/1/1
f 31/4/1 27/4/1 26/4/1
f 32/4/1 27/4/1 31/4/1
f 33/2/1 29/2/1 28/2/1
f 34/2/1 29/2/1 33/2/1
f 36/1/1 32/1/1 31/1/1
f 36/1/1 31/1/1 30/1/1
f 37/1/1 32/1/1 36/1/1
f 38/1/1 32/1/1 37/1/1
f 39/1/1 36/1/1 35/1/1
f 39/1/1 37/1/1 36/1/1
f 40/1/1 37/1/1 39/1/1
f 44/1/1 42/1/1 41/1/1
f 44/1/1 43/1/1 42/1/1
f 45/1/1 43/1/1 44/1/1
f 46/1/1 43/1/1 45/1/1
f 47/1/1 43/1/1 46/1/1
f 48/1/1 46/1/1 45/1/1
f 49/1/1 46/1/1 48/1/1
f 51/1/1 50/1/1 49/1/1
f 52/1/1 50/1/1 51/1/1
f 55/1/1 53/1/1 52/1/1
f 56/5/1 54/5/1 53/5/1
f 56/1/1 53/1/1 55/1/1
f 57/5/1 54/5/1 56/5/1
f 62/1/1 59/1/1 58/1/1
f 63/1/1 59/1/1 62/1/1
f 65/6/1 61/6/1 60/6/1
f 66/6/1 61/6/1 65/6/1
f 68/1/1 64/1/1 63/1/1
f 69/1/1 64/1/1 68/1/1
f 71/6/1 67/6/1 66/6/1
f 72/6/1 67/6/1 71/6/1
f 74/1/1 70/1/1 69/1/1
f 75/1/1 70/1/1 74/1/1
f 77/1/1 73/1/1 72/1/1
f 77/1/1 72/1/1 71/1/1
f 78/1/1 73/1/1 77/1/1
f 79/1/1 73/1/1 78/1/1
f 80/1/1 77/1/1 76/1/1
f 81/1/1 77/1/1 80/1/1
f 84/2/1 83/2/1 82/2/1
f 85/2/1 83/2/1 84/2/1
f 92/2/1 87/2/1 86/2/1
f 93/2/1 87/2/1 92/2/1
f 94/4/1 89/4/1 88/4/1
f 95/4/1 89/4/1 94/4/1
f 96/2/1 91/2/1 90/2/1
f 97/2/1 91/2/1 96/2/1
f 98/1/1 95/1/1 94/1/1
f 98/1/1 94/1/1 93/1/1
f 99/1/1 95/1/1 98/1/1
f 100/1/1 95/1/1 99/1/1
f 107/1/1 102/1/1 101/1/1
f 108/4/1 103/4/1 102/4/1
f 108/1/1 102/1/1 107/1/1
f 109/4/1 103/4/1 108/4/1
f 110/2/1 105/2/1 104/2/1
f 111/2/1 105/2/1 110/2/1
f 112/1/1 107/1/1 106/1/1
f 112/1/1 108/1/1 107/1/1
f 113/1/1 108/1/1 112/1/1
f 114/1/1 108/1/1 113/1/1
f 115/1/1 114/1/1 113/1/1
f 116/1/1 114/1/1 115/1/1
f 117/1/2 118/1/2 123/1/2
f 118/4/2 119/4/2 124/4/2
f 123/1/2 118/1/2 124/1/2
f 124/4/2 119/4/2 125/4/2
f 120/2/2 121/2/2 126/2/2
f 126/2/2 121/2/2 127/2/2
f 122/1/2 123/1/2 128/1/2
f 123/1/2 124/1/2 128/1/2
f 128/1/2 124/1/2 129/1/2
f 129/1/2 124/1/2 130/1/2
f 129/1/2 130/1/2 131/1/2
f 131/1/2 130/1/2 132/1/2
f 133/2/2 134/2/2 139/2/2
f 139/2/2 134/2/2 140/2/2
f 135/4/2 136/4/2 141/4/2
f 141/4/2 136/4/2 142/4/2
f 137/2/2 138/2/2 143/2/2
f 143/2/2 138/2/2 144/2/2
f 141/1/2 142/1/2 145/1/2
f 140/1/2 141/1/2 145/1/2
f 145/1/2 142/1/2 146/1/2
f 146/1/2 142/1/2 147/1/2
f 148/2/2 149/2/2 150/2/2
f 150/2/2 149/2/2 151/2/2
f 152/1/2 153/1/2 156/1/2
f 156/1/2 153/1/2 157/1/2
f 154/6/2 155/6/2 159/6/2
f 159/6/2 155/6/2 160/6/2
f 157/1/2 158/1/2 162/1/2
f 162/1/2 158/1/2 163/1/2
f 160/6/2 161/6/2 165/6/2
f 165/6/2 161/6/2 166/6/2
f 163/1/2 164/1/2 168/1/2
f 168/1/2 164/1/2 169/1/2
f 166/1/2 167/1/2 171/1/2
f 165/1/2 166/1/2 171/1/2
f 171/1/2 167/1/2 172/1/2
f 172/1/2 167/1/2 173/1/2
f 170/1/2 171/1/2 174/1/2
f 174/1/2 171/1/2 175/1/2
f 176/1/2 177/1/2 179/1/2
f 177/1/2 178/1/2 179/1/2
f 179/1/2 178/1/2 180/1/2
f 180/1/2 178/1/2 181/1/2
f 181/1/2 178/1/2 182/1/2
f 180/1/2 181/1/2 183/1/2
f 183/1/2 181/1/2 184/1/2
f 184/1/2 185/1/2 186/1/2
f 186/1/2 185/1/2 187/1/2
f 187/1/2 188/1/2 190/1/2
f 188/5/2 189/5/2 191/5/2
f 190/1/2 188/1/2 191/1/2
f 191/5/2 189/5/2 192/5/2
f 193/4/2 194/4/2 198/4/2
f 198/4/2 194/4/2 199/4/2
f 195/2/2 196/2/2 200/2/2
f 200/2/2 196/2/2 201/2/2
f 198/1/2 199/1/2 203/1/2
f 197/1/2 198/1/2 203/1/2
f 203/1/2 199/1/2 204/1/2
f 204/1/2 199/1/2 205/1/2
f 202/1/2 203/1/2 206/1/2
f 203/1/2 204/1/2 206/1/2
f 206/1/2 204/1/2 207/1/2
f 208/1/2 209/1/2 216/1/2
f 209/4/2 210/4/2 217/4/2
f 216/1/2 209/1/2 217/1/2
f 217/4/2 210/4/2 218/4/2
f 211/2/2 212/2/2 219/2/2
f 219/2/2 212/2/2 220/2/2
f 213/2/2 214/2/2 221/2/2
f 221/2/2 214/2/2 222/2/2
f 215/1/2 216/1/2 223/1/2
f 216/1/2 217/1/2 223/1/2
f 223/1/2 217/1/2 224/1/2
f 224/1/2 217/1/2 225/1/2
f 225/1/2 226/1/2 227/1/2
f 224/1/2 225/1/2 227/1/2
f 227/1/2 226/1/2 228/1/2
f 229/2/2 230/2/2 231/2/2
f 231/2/2 230/2/2 232/2/2
f 235/1/3 234/1/3 233/1/3
f 236/1/3 234/1/3 235/1/3
f 239/1/3 238/1/3 237/1/3
f 240/1/3 238/1/3 239/1/3
f 243/1/3 242/1/3 241/1/3
f 244/1/3 242/1/3 243/1/3
f 247/1/3 245/1/3 244/1/3
f 248/1/3 245/1/3 247/1/3
f 249/1/3 247/1/3 246/1/3
f 250/1/3 247/1/3 249/1/3
f 253/1/3 252/1/3 251/1/3
f 254/1/3 252/1/3 253/1/3
f 259/1/3 256/1/3 255/1/3
f 260/1/3 256/1/3 259/1/3
f 261/1/3 258/1/3 257/1/3
f 262/1/3 258/1/3 261/1/3
f 265/1/3 264/1/3 263/1/3
f 266/1/3 264/1/3 265/1/3
f 269/1/3 267/1/3 266/1/3
f 270/1/3 267/1/3 269/1/3
f 271/1/3 269/1/3 268/1/3
f 272/1/3 269/1/3 271/1/3
f 277/1/3 274/1/3 273/1/3
f 278/1/3 274/1/3 277/1/3
f 279/1/3 276/1/3 275/1/3
f 280/1/3 276/1/3 279/1/3
f 283/1/3 282/1/3 281/1/3
f 284/1/3 282/1/3 283/1/3
f 286/1/3 285/1/3 284/1/3
f 287/1/3 285/1/3 286/1/3
f 291/1/3 289/1/3 288/1/3
f 292/1/3 289/1/3 291/1/3
f 293/1/3 291/1/3 290/1/3
f 294/1/3 291/1/3 293/1/3
f 297/2/3 296/2/3 295/2/3
f 298/2/3 296/2/3 297/2/3
f 301/2/3 300/2/3 299/2/3
f 302/2/3 300/2/3 301/2/3
f 305/2/3 304/2/3 303/2/3
f 306/2/3 304/2/3 305/2/3
f 309/2/3 308/2/3 307/2/3
f 310/2/3 308/2/3 309/2/3
f 313/1/3 312/1/3 311/1/3
f 314/1/3 312/1/3 313/1/3
f 317/1/3 316/1/3 315/1/3
f 318/1/3 316/1/3 317/1/3
f 321/1/3 320/1/3 319/1/3
f 322/1/3 320/1/3 321/1/3
f 325/4/3 324/4/3 323/4/3
f 326/4/3 324/4/3 325/4/3
f 329/1/3 328/1/3 327/1/3
f 330/1/3 328/1/3 329/1/3
f 335/1/3 332/1/3 331/1/3
f 336/1/3 332/1/3 335/1/3
f 337/4/3 334/4/3 333/4/3
f 338/4/3 334/4/3 337/4/3
f 341/2/3 340/2/3 339/2/3
f 342/2/3 340/2/3 341/2/3
f 345/2/3 344/2/3 343/2/3
f 346/2/3 344/2/3 345/2/3
f 349/2/3 348/2/3 347/2/3
f 350/2/3 348/2/3 349/2/3
f 353/2/3 352/2/3 351/2/3
f 354/2/3 352/2/3 353/2/3
f 355/1/4 356/1/4 357/1/4
f 357/1/4 356/1/4 358/1/4
f 359/1/4 360/1/4 361/1/4
f 361/1/4 360/1/4 362/1/4
f 363/1/4 364/1/4 365/1/4
f 365/1/4 364/1/4 366/1/4
f 367/1/4 368/1/4 369/1/4
f 369/1/4 368/1/4 370/1/4
f 371/2/4 372/2/4 373/2/4
f 373/2/4 372/2/4 374/2/4
f 375/2/4 376/2/4 377/2/4
f 377/2/4 376/2/4 378/2/4
f 378/1/4 379/1/4 380/1/4
f 380/1/4 379/1/4 381/1/4
f 382/1/4 383/1/4 385/1/4
f 385/1/4 383/1/4 386/1/4
f 384/2/4 385/2/4 387/2/4
f 387/2/4 385/2/4 388/2/4
f 389/2/4 390/2/4 391/2/4
f 391/2/4 390/2/4 392/2/4
f 393/2/4 394/2/4 395/2/4
f 395/2/4 394/2/4 396/2/4
f 397/1/4 398/1/4 399/1/4
f 399/1/4 398/1/4 400/1/4
f 399/1/4 400/1/4 403/1/4
f 400/1/4 401/1/4 403/1/4
f 403/1/4 401/1/4 404/1/4
f 404/1/4 401/1/4 405/1/4
f 402/6/4 403/6/4 406/6/4
f 406/6/4 403/6/4 407/6/4
f 408/1/4 409/1/4 410/1/4
f 407/1/4 408/1/4 410/1/4
f 410/1/4 409/1/4 411/1/4
f 411/1/4 409/1/4 412/1/4
f 410/1/4 411/1/4 415/1/4
f 415/1/4 411/1/4 416/1/4
f 413/2/4 414/2/4 417/2/4
f 417/2/4 414/2/4 418/2/4
f 419/1/4 420/1/4 421/1/4
f 421/1/4 420/1/4 422/1/4
f 423/6/4 424/6/4 425/6/4
f 425/6/4 424/6/4 426/6/4
f 427/1/4 428/1/4 429/1/4
f 429/1/4 428/1/4 430/1/4
f 431/2/4 432/2/4 433/2/4
f 433/2/4 432/2/4 434/2/4
f 435/2/4 436/2/4 439/2/4
f 439/2/4 436/2/4 440/2/4
f 437/5/4 438/5/4 442/5/4
f 442/5/4 438/5/4 443/5/4
f 441/1/4 442/1/4 446/1/4
f 442/1/4 443/1/4 446/1/4
f 446/1/4 443/1/4 447/1/4
f 447/1/4 443/1/4 448/1/4
f 444/2/4 445/2/4 449/2/4
f 449/2/4 445/2/4 450/2/4
f 447/5/4 448/5/4 451/5/4
f 451/5/4 448/5/4 452/5/4
f 453/2/4 454/2/4 455/2/4
f 455/2/4 454/2/4 456/2/4
f 457/2/4 458/2/4 459/2/4
f 459/2/4 458/2/4 460/2/4
f 461/2/4 462/2/4 463/2/4
f 463/2/4 462/2/4 464/2/4
f 469/1/5 466/1/5 465/1/5
f 470/1/5 466/1/5 469/1/5
f 471/1/5 468/1/5 467/1/5
f 472/1/5 468/1/5 471/1/5
f 474/4/5 470/4/5 469/4/5
f 475/4/5 470/4/5 474/4/5
f 478/4/5 472/4/5 471/4/5
f 479/4/5 472/4/5 478/4/5
f 481/2/5 474/2/5 473/2/5
f 482/3/5 475/3/5 474/3/5
f 482/2/5 474/2/5 481/2/5
f 483/2/5 476/2/5 475/2/5
f 483/3/5 475/3/5 482/3/5
f 484/2/5 476/2/5 483/2/5
f 485/2/5 478/2/5 477/2/5
f 486/3/5 479/3/5 478/3/5
f 486/2/5 478/2/5 485/2/5
f 487/2/5 480/2/5 479/2/5
f 487/3/5 479/3/5 486/3/5
f 488/2/5 480/2/5 487/2/5
f 489/2/5 483/2/5 482/2/5
f 490/2/5 483/2/5 489/2/5
f 493/2/5 487/2/5 486/2/5
f 494/2/5 487/2/5 493/2/5
f 496/4/5 491/4/5 490/4/5
f 497/4/5 491/4/5 496/4/5
f 500/4/5 493/4/5 492/4/5
f 501/4/5 493/4/5 500/4/5
f 503/2/5 496/2/5 495/2/5
f 504/3/5 497/3/5 496/3/5
f 504/2/5 496/2/5 503/2/5
f 505/2/5 498/2/5 497/2/5
f 505/3/5 497/3/5 504/3/5
f 506/2/5 498/2/5 505/2/5
f 507/2/5 500/2/5 499/2/5
f 508/3/5 501/3/5 500/3/5
f 508/2/5 500/2/5 507/2/5
f 509/2/5 502/2/5 501/2/5
f 509/3/5 501/3/5 508/3/5
f 510/2/5 502/2/5 509/2/5
f 511/2/5 505/2/5 504/2/5
f 512/2/5 505/2/5 511/2/5
f 513/2/5 509/2/5 508/2/5
f 514/2/5 509/2/5 513/2/5
f 520/1/5 516/1/5 515/1/5
f 521/1/5 516/1/5 520/1/5
f 525/1/5 518/1/5 517/1/5
f 526/1/5 518/1/5 525/1/5
f 527/1/5 520/1/5 519/1/5
f 527/1/5 521/1/5 520/1/5
f 527/1/5 522/1/5 521/1/5
f 528/1/5 522/1/5 527/1/5
f 529/1/5 524/1/5 523/1/5
f 530/1/5 524/1/5 529/1/5
f 531/1/5 527/1/5 519/1/5
f 532/1/5 522/1/5 528/1/5
f 534/1/5 527/1/5 531/1/5
f 535/6/5 528/6/5 527/6/5
f 535/1/5 527/1/5 534/1/5
f 536/1/5 532/1/5 528/1/5
f 536/6/5 528/6/5 535/6/5
f 537/1/5 532/1/5 536/1/5
f 539/1/5 534/1/5 533/1/5
f 540/1/5 534/1/5 539/1/5
f 541/6/5 536/6/5 535/6/5
f 542/6/5 536/6/5 541/6/5
f 543/1/5 538/1/5 537/1/5
f 544/1/5 538/1/5 543/1/5
f 551/1/5 546/1/5 545/1/5
f 551/1/5 547/1/5 546/1/5
f 552/1/5 547/1/5 551/1/5
f 553/1/5 550/1/5 549/1/5
f 553/1/5 549/1/5 548/1/5
f 554/1/5 550/1/5 553/1/5
f 555/1/5 547/1/5 552/1/5
f 556/1/5 547/1/5 555/1/5
f 559/1/5 553/1/5 548/1/5
f 560/1/5 553/1/5 559/1/5
f 561/1/5 557/1/5 556/1/5
f 562/1/5 557/1/5 561/1/5
f 563/1/5 559/1/5 558/1/5
f 564/1/5 559/1/5 563/1/5
f 565/6/5 563/6/5 562/6/5
f 566/6/5 563/6/5 565/6/5
f 569/1/5 568/1/5 567/1/5
f 570/1/5 568/1/5 569/1/5
f 575/1/5 572/1/5 571/1/5
f 576/1/5 572/1/5 575/1/5
f 577/1/5 574/1/5 573/1/5
f 578/1/5 574/1/5 577/1/5
f 579/5/5 576/5/5 575/5/5
f 580/5/5 576/5/5 579/5/5
f 581/5/5 578/5/5 577/5/5
f 582/5/5 578/5/5 581/5/5
f 583/4/6 584/4/6 588/4/6
f 588/4/6 584/4/6 589/4/6
f 585/4/6 586/4/6 592/4/6
f 592/4/6 586/4/6 593/4/6
f 587/2/6 588/2/6 595/2/6
f 588/3/6 589/3/6 596/3/6
f 595/2/6 588/2/6 596/2/6
f 589/2/6 590/2/6 597/2/6
f 596/3/6 589/3/6 597/3/6
f 597/2/6 590/2/6 598/2/6
f 591/2/6 592/2/6 599/2/6
f 592/3/6 593/3/6 600/3/6
f 599/2/6 592/2/6 600/2/6
f 593/2/6 594/2/6 601/2/6
f 600/3/6 593/3/6 601/3/6
f 601/2/6 594/2/6 602/2/6
f 596/2/6 597/2/6 603/2/6
f 603/2/6 597/2/6 604/2/6
f 600/2/6 601/2/6 605/2/6
f 605/2/6 601/2/6 606/2/6
f 607/2/6 608/2/6 615/2/6
f 608/3/6 609/3/6 616/3/6
f 615/2/6 608/2/6 616/2/6
f 609/2/6 610/2/6 617/2/6
f 616/3/6 609/3/6 617/3/6
f 617/2/6 610/2/6 618/2/6
f 611/2/6 612/2/6 619/2/6
f 612/3/6 613/3/6 620/3/6
f 619/2/6 612/2/6 620/2/6
f 613/2/6 614/2/6 621/2/6
f 620/3/6 613/3/6 621/3/6
f 621/2/6 614/2/6 622/2/6
f 616/2/6 617/2/6 623/2/6
f 623/2/6 617/2/6 624/2/6
f 620/2/6 621/2/6 625/2/6
f 625/2/6 621/2/6 626/2/6
f 627/1/6 628/1/6 632/1/6
f 632/1/6 628/1/6 633/1/6
f 629/1/6 630/1/6 637/1/6
f 637/1/6 630/1/6 638/1/6
f 631/1/6 632/1/6 639/1/6
f 639/1/6 632/1/6 640/1/6
f 633/1/6 634/1/6 641/1/6
f 641/1/6 634/1/6 642/1/6
f 635/1/6 636/1/6 643/1/6
f 643/1/6 636/1/6 644/1/6
f 645/1/6 646/1/6 649/1/6
f 649/1/6 646/1/6 650/1/6
f 647/1/6 648/1/6 651/1/6
f 651/1/6 648/1/6 652/1/6
f 653/1/6 654/1/6 658/1/6
f 658/1/6 654/1/6 659/1/6
f 655/1/6 656/1/6 663/1/6
f 657/1/6 658/1/6 664/1/6
f 664/1/6 658/1/6 665/1/6
f 659/1/6 660/1/6 666/1/6
f 666/1/6 660/1/6 667/1/6
f 661/1/6 662/1/6 668/1/6
f 655/1/6 663/1/6 669/1/6
f 663/1/6 664/1/6 669/1/6
f 669/1/6 664/1/6 670/1/6
f 667/1/6 668/1/6 671/1/6
f 668/1/6 662/1/6 671/1/6
f 671/1/6 662/1/6 672/1/6
f 670/1/6 664/1/6 673/1/6
f 673/1/6 664/1/6 674/1/6
f 667/1/6 671/1/6 675/1/6
f 675/1/6 671/1/6 676/1/6
f 677/1/6 678/1/6 680/1/6
f 680/1/6 678/1/6 681/1/6
f 679/1/6 680/1/6 683/1/6
f 681/1/6 682/1/6 683/1/6
f 680/1/6 681/1/6 683/1/6
f 683/1/6 682/1/6 684/1/6
f 679/1/6 683/1/6 685/1/6
f 685/1/6 683/1/6 686/1/6
f 684/1/6 682/1/6 687/1/6
f 687/1/6 682/1/6 688/1/6
f 689/1/6 690/1/6 692/1/6
f 692/1/6 690/1/6 693/1/6
f 691/1/6 692/1/6 695/1/6
f 693/1/6 694/1/6 695/1/6
f 692/1/6 693/1/6 695/1/6
f 695/1/6 694/1/6 696/1/6
f 696/1/6 694/1/6 697/1/6
f 697/1/6 694/1/6 698/1/6
f 695/5/6 696/5/6 699/5/6
f 696/1/6 697/1/6 700/1/6
f 699/5/6 696/5/6 700/5/6
f 697/5/6 698/5/6 701/5/6
f 700/1/6 697/1/6 701/1/6
f 701/5/6 698/5/6 702/5/6
